<svg xmlns="http://www.w3.org/2000/svg" version="1.1" xmlnsXlink="http://www.w3.org/1999/xlink" xmlnsSvgjs="http://svgjs.com/svgjs" width="3840" height="2160" preserveAspectRatio="none" viewBox="0 0 3840 2160">
    <g mask="url(&quot;#SvgjsMask1223&quot;)" fill="none">
    <rect width="3840" height="2160" x="0" y="0" fill="url(#SvgjsLinearGradient1224)"></rect>
    <defs>
    <pattern id="pattern" x="0" y="0" width="52" height="52" patternUnits="userSpaceOnUse" patternTransform="translate(30, 30) rotate(0) scale(2) skewX(0)">
    <animateTransform 
        attributeType="xml"
        attributeName="patternTransform"
        type="rotate" from="0" to="180" begin="0"
        dur="180s" repeatCount="indefinite"/>
      <svg width="32" height="32" viewBox="0 0 100 100">
        <g fill="#4bbce2" class="patternOpacity">
          <path d="M64.5884 14.3424C62.3077 14.3424 60.0777 14.5577 57.9162 14.9676C63.3704 18.4498 67.9592 23.1711 71.2862 28.731C95.2235 36.6816 90.1399 71.7589 64.588 72.2553C46.8397 72.4356 36.101 51.8442 46.1847 37.4296C42.7094 34.4295 37.5541 32.9401 32.816 33.8264C20.6585 56.9236 38.3263 85.9819 64.5888 85.618C111.808 83.8731 111.8 16.0828 64.5884 14.3424V14.3424Z"></path>
          <path d="M28.9422 71.23C5.00512 63.2792 10.0886 28.2021 35.6404 27.7057C53.3891 27.5256 64.1274 48.1164 54.0437 62.5315C57.5196 65.5319 62.6761 67.0216 67.4146 66.134C79.5678 43.0383 61.9027 13.9779 35.6396 14.3426C15.9577 14.3424 0.0021307 30.2982 0.0021307 49.9805C-0.242949 72.0749 20.6939 89.3162 42.3108 84.9926C36.8572 81.5104 32.2688 76.7893 28.9422 71.23V71.23Z" class="triangle-float3"></path>
        </g>
      </svg>
    </pattern>
  </defs>
    
  <rect x="0" y="0" width="100%" height="100%" fill="rgba(71, 75, 255, 0)"></rect>
  <rect x="0" y="0" width="100%" height="100%" fill="url(#pattern)"></rect>
    </g>
  <defs>
    
    <linearGradient x1="89.06%" y1="-19.44%" x2="10.94%" y2="119.44%" gradientUnits="userSpaceOnUse" id="SvgjsLinearGradient1224">
      <stop stop-color="#0e2a47" offset="0"></stop>
      <stop stop-color="rgba(0, 0, 0, 1)" offset="1"></stop>
    </linearGradient>
    <style>
            @keyframes float3 {
                0%{transform: translateX(0, 0)}
                50%{transform: translateX(30px)}
                100%{transform: translateX(0, 0)}
            }

            .triangle-float3 {
                animation: float3 6s infinite;
            }

            @keyframes opacity {
                0%{opacity: 2.5%}
                50%{opacity: 4%}
                100%{opacity: 2.5%}
            }

            .patternOpacity {
                animation: opacity 5s infinite;
            }
    </style>
  </defs>
</svg>